<?xml version="1.0" standalone="no"?><!DOCTYPE svg PUBLIC "-//W3C//DTD SVG 1.1//EN" "http://www.w3.org/Graphics/SVG/1.1/DTD/svg11.dtd"><svg t="1501151215119" class="icon" style="" viewBox="0 0 1024 1024" version="1.1" xmlns="http://www.w3.org/2000/svg" p-id="6258" xmlns:xlink="http://www.w3.org/1999/xlink" width="128" height="128"><defs><style type="text/css"></style></defs><path d="M643.535238 434.41981h-289.645714l195.072 29.549714-206.896762 165.497905h307.370667l-183.247239-35.474286z" fill="#FFC82D" p-id="6259"></path><path d="M512 24.380952C242.688 24.380952 24.380952 242.688 24.380952 512s218.307048 487.619048 487.619048 487.619048 487.619048-218.307048 487.619048-487.619048S781.312 24.380952 512 24.380952z m189.147429 752.859429c-5.90019 5.90019-5.90019 5.90019-11.800381 5.90019l-183.247238-112.274285-183.222858 112.274285c-11.800381 0-17.724952 0-17.724952-5.90019l29.549714-218.697143-147.772952-130.023619v-5.90019h212.796952l100.473905-195.047619H512l106.374095 195.047619h189.147429c5.90019 0 5.90019 0 5.90019 5.90019l-147.772952 124.099048 35.498667 224.621714z" fill="#FFC82D" p-id="6260"></path></svg>