<?xml version="1.0" standalone="no"?><!DOCTYPE svg PUBLIC "-//W3C//DTD SVG 1.1//EN" "http://www.w3.org/Graphics/SVG/1.1/DTD/svg11.dtd"><svg t="1501234855885" class="icon" style="" viewBox="0 0 1024 1024" version="1.1" xmlns="http://www.w3.org/2000/svg" p-id="4886" xmlns:xlink="http://www.w3.org/1999/xlink" width="128" height="128"><defs><style type="text/css"></style></defs><path d="M511.089257 41.541115c248.489444 0 449.939549 205.282387 449.939549 458.498482S759.578702 958.538079 511.089257 958.538079 61.148685 753.256716 61.148685 500.039597 262.59879 41.541115 511.089257 41.541115L511.089257 41.541115zM340.693426 555.828204c-1.52575 6.691399-2.215458 13.761422-3.38305 20.74958L317.093938 701.090613c-2.600221 18.587334-7.057743 30.442336 4.524037 47.745421 1.605567 2.379187 2.653433 3.487428 4.616134 5.487991 2.029216 2.081405 3.078105 2.947122 5.359055 4.717442 5.850242 4.501524 14.432711 8.124028 22.418592 8.124028 11.673877 0 17.629519-1.662873 27.048029-7.231705 1.445932-0.864694 2.998287-1.676176 4.524037-2.608407 7.507998-4.663206 15.560394-8.286734 23.14821-12.895705 9.18008-5.596462 18.677385-10.273994 28.003797-15.585977 1.697665-0.973164 2.785439-1.676176 4.562922-2.568499 1.857301-0.918929 2.812045-1.635243 4.576225-2.541893l60.305481-33.592073c6.393617-3.487428 4.484128-3.298116 13.96813 2.311649l51.191916 28.441772c1.565658 0.838088 2.891863 1.702782 4.576225 2.555196l11.514241 6.502088c0.954745 0.540306 1.52575 0.743944 2.493797 1.284249 1.061169 0.567935 1.074472 0.689708 2.095731 1.257643 0.954745 0.554632 1.485841 0.729617 2.453888 1.325182l23.201421 12.841469c1.697665 0.959861 3.038196 1.852184 4.735861 2.812045l18.585287 10.341532c15.414061 8.461719 27.101241 10.017144 43.219337 3.176342 1.857301-0.797156 4.722558-2.568499 6.314823-3.75758 5.850242-4.420683 10.718109-9.827833 13.889335-16.815991 1.061169-2.338255 1.89721-5.082762 2.586918-7.54279 2.122337-7.556093 1.127683-15.19405-0.079818-22.750143l-4.987594-31.4155c-0.451278-2.987031-1.074472-6.732331-1.657756-10.178827-0.556679-3.203972-1.074472-6.907317-1.737574-10.544147-3.078105-17.140379-5.505387-34.68701-8.317433-51.773154-2.281973-13.855566-5.054109-28.022217-6.884804-41.783639-0.491187-3.704368-1.39272-7.05672-1.684362-10.598382 3.236718-2.203178 13.0799-13.112646 16.541745-16.654308l6.03546-6.151094c8.330736-9.638521 17.735943-18.492166 26.649963-27.576055 1.499144-1.541099 2.706645-2.744507 4.112668-4.298909 0.053212-0.067538 0.13303-0.162706 0.198521-0.230244l2.785439-3.095501c8.317433-9.299807 17.987676-18.154475 26.557866-27.251667l2.719948-2.744507c0.079818-0.094144 0.318248-0.352017 0.398066-0.446162l4.03285-4.379751c6.646374-6.745634 22.338774-21.520129 26.464745-27.765367 0.60989-0.918929 1.061169-1.608637 1.657756-2.541893 14.432711-22.926152 3.568269-54.787814-22.033829-63.534012-6.141884-2.095731-32.845059-6.110161-41.653679-7.178493l-70.585615-10.8143c-4.351098-0.648776-9.312086-1.500167-14.034645-2.24411l-28.255531-4.298909c-7.494695-1.297552-6.115278 0.026606-9.458419-6.907317l-20.866237-44.920072c-1.89721-3.75758-3.316535-7.394411-5.213745-11.232832l-10.426467-22.479991c-4.77577-11.382235-11.04966-22.168905-15.706727-33.646308l-5.227048-11.219529c-3.343141-6.974855-6.420223-15.640212-11.18269-21.696138-2.825348-3.568269-4.524037-5.352915-8.211009-8.178263-19.141966-14.70798-45.766346-10.273994-60.132542 8.665357-3.608178 4.745071-16.714683 33.280987-20.50808 41.892109-4.510734 10.246365-12.217253 25.035186-15.945157 34.254152-3.634784 8.975419-8.383948 17.005302-12.005428 25.940812l-19.712971 42.284035c-4.112668 7.988951 0 5.89322-16.821107 8.326643l-53.80544 8.380878c-3.846608 0.635473-6.844895 0.959861-10.532891 1.582031l-43.073005 6.582929c-2.162246 0.311085-3.409656 0.635473-5.359055 0.905626-9.100262 1.270946-28.945239 3.500731-36.32123 6.678096-9.909697 4.285606-17.602913 11.463076-22.511713 21.195741-0.862647 1.717108-1.101077 2.703575-1.804089 4.514827-4.974291 12.706393-2.228761 28.617781 5.571902 39.47199 4.974291 6.92062 17.696034 18.844184 24.382317 25.657356l8.953929 9.543354c1.140986 1.162476 1.977028 2.013867 3.116991 3.176342l22.206768 22.777773c9.803273 11.057847 22.418592 21.898753 31.54546 32.767288 0.649799 0.77055 0.941442 1.068332 1.61887 1.757017 4.204765 4.257977 8.092305 8.232498 12.283768 12.503778C331.181795 546.352389 337.523223 553.664935 340.693426 555.828204L340.693426 555.828204z" p-id="4887" fill="#f4ea2a"></path></svg>