<?xml version="1.0" standalone="no"?><!DOCTYPE svg PUBLIC "-//W3C//DTD SVG 1.1//EN" "http://www.w3.org/Graphics/SVG/1.1/DTD/svg11.dtd"><svg t="1501641144250" class="icon" style="" viewBox="0 0 1024 1024" version="1.1" xmlns="http://www.w3.org/2000/svg" p-id="2509" xmlns:xlink="http://www.w3.org/1999/xlink" width="128" height="128"><defs><style type="text/css"></style></defs><path d="M510.136559 63.467497c-246.959601 0-447.166389 200.205764-447.166389 447.164343 0 246.971881 200.206788 447.163319 447.166389 447.163319 246.969834 0 447.163319-200.191438 447.163319-447.163319C957.298855 263.673262 757.106394 63.467497 510.136559 63.467497zM728.134549 386.53959 449.851545 666.547889c-0.991584 1.473561-2.134617 2.874467-3.437286 4.178159-10.913561 10.913561-28.608571 10.913561-39.524179 0L268.555455 532.392446c-10.913561-10.914584-10.913561-28.611641 0-39.524179 10.914584-10.914584 28.610618-10.914584 39.524179 0l118.15298 118.150934 262.377756-264.004813c10.914584-10.914584 28.610618-10.914584 39.525202 0C739.049133 357.929995 739.049133 375.625006 728.134549 386.53959z" p-id="2510" fill="#f4ea2a"></path></svg>