<?xml version="1.0" standalone="no"?><!DOCTYPE svg PUBLIC "-//W3C//DTD SVG 1.1//EN" "http://www.w3.org/Graphics/SVG/1.1/DTD/svg11.dtd"><svg t="1501233910700" class="icon" style="" viewBox="0 0 1025 1024" version="1.1" xmlns="http://www.w3.org/2000/svg" p-id="2352" xmlns:xlink="http://www.w3.org/1999/xlink" width="128.125" height="128"><defs><style type="text/css"></style></defs><path d="M338.895238 385.219048c17.066667 0 29.257143-12.190476 29.257143-30.476191s-12.190476-29.257143-29.257143-29.257143-35.352381 12.190476-35.352381 29.257143c0 18.285714 17.066667 30.47619 35.352381 30.476191z m164.571429-59.733334c-17.066667 0-35.352381 12.190476-35.352381 29.257143 0 18.285714 18.285714 30.47619 35.352381 30.476191 18.285714 0 29.257143-12.190476 29.257143-30.476191 0-17.066667-10.971429-29.257143-29.257143-29.257143z m206.019047 221.866667c18.285714 0 29.257143-12.190476 29.257143-24.380952s-12.190476-24.380952-29.257143-24.380953c-12.190476 0-23.161905 12.190476-23.161904 24.380953s12.190476 24.380952 23.161904 24.380952z m-129.219047 0c18.285714 0 29.257143-12.190476 29.257143-24.380952s-12.190476-24.380952-29.257143-24.380953c-12.190476 0-23.161905 12.190476-23.161905 24.380953s10.971429 24.380952 23.161905 24.380952zM1.219048 512c0 282.819048 229.180952 512 512 512s512-229.180952 512-512S794.819048 0 512 0C230.4 0 1.219048 229.180952 1.219048 512z m629.028571-121.904762c-112.152381 0-199.92381 85.333333-199.923809 188.952381 0 17.066667 2.438095 34.133333 7.314285 49.980952-7.314286 1.219048-14.628571 1.219048-21.942857 1.219048-29.257143 0-53.638095-6.095238-82.895238-12.190476l-82.895238 41.447619 23.161905-71.92381c-58.514286-41.447619-93.866667-95.085714-93.866667-160.914285 0-113.371429 106.057143-203.580952 235.27619-203.580953 115.809524 0 216.990476 71.92381 237.714286 168.228572-6.095238 0-14.628571-1.219048-21.942857-1.219048z m215.771429 186.514286c0 53.638095-35.352381 101.180952-82.895238 137.752381l18.285714 59.733333-64.609524-35.352381c-23.161905 6.095238-47.542857 12.190476-70.704762 12.190476-112.152381 0-201.142857-78.019048-201.142857-173.104762 0-95.085714 88.990476-173.104762 201.142857-173.104761 104.838095-1.219048 199.92381 76.8 199.92381 171.885714z" fill="#04D102" p-id="2353"></path></svg>